<svg xmlns="http://www.w3.org/2000/svg" width="512" height="512" viewBox="0 0 512 512" version="1.1">
	<path d="M 164.500 3.615 C 120.801 15.286, 75.077 35.992, 63.251 49.464 C 44.213 71.151, 29.212 130.399, 21.945 212.594 C 20.427 229.774, 20.833 230.666, 32.673 236.136 C 50.104 244.189, 74.788 251.223, 96.500 254.323 L 105.500 255.608 106 369.554 C 106.434 468.569, 106.697 483.802, 108 485.805 C 112.344 492.479, 145.110 502.326, 178.729 507.060 C 226.148 513.737, 287.452 513.684, 334 506.926 C 368.121 501.972, 399.674 492.451, 404 485.805 C 405.303 483.802, 405.566 468.569, 406 369.554 L 406.500 255.608 415.500 254.323 C 437.212 251.223, 461.896 244.189, 479.327 236.136 C 491.167 230.666, 491.573 229.774, 490.055 212.594 C 482.832 130.893, 467.957 71.835, 449.033 49.726 C 437.284 35.999, 388.795 14.276, 344.575 2.928 L 331.649 -0.389 312.575 2.818 C 259.803 11.689, 248.587 11.655, 197.232 2.466 C 189.679 1.114, 182.150 0.039, 180.500 0.075 C 178.850 0.112, 171.650 1.705, 164.500 3.615" stroke="none" fill="black" fill-rule="evenodd"/>
</svg>